<?xml version="1.0" encoding="utf-8"?>
<!-- Generator: Adobe Illustrator 22.1.0, SVG Export Plug-In . SVG Version: 6.00 Build 0)  -->
<svg version="1.1" id="Var2" xmlns="http://www.w3.org/2000/svg" xmlns:xlink="http://www.w3.org/1999/xlink" x="0px" y="0px"
	 width="134.5px" height="113.7px" viewBox="0 0 134.5 113.7" style="enable-background:new 0 0 134.5 113.7;" xml:space="preserve"
	>
<style type="text/css">
	.st0{fill:#FFFFFF;}
</style>
<path id="telegram_3_" class="st0" d="M125.6,0.9L5.1,46.6c-6.6,1.9-6.4,8.4-1.5,10L33.8,66l11.6,35.4c1.4,3.9,2.6,5.3,5,5.4
	c2.5,0,3.5-0.9,6.1-3.2c3.1-2.9,7.7-7.4,15.1-14.6l31.4,23.2c5.8,3.2,10,1.5,11.4-5.4L134,9.4C136.1,0.9,131.1-1.6,125.6,0.9z
	 M38.5,63.8l68.6-43.1c3.4-2.3,4.4,0.3,2.9,2L53.1,74l-2.9,25.6L38.5,63.8z"/>
</svg>
