<?xml version="1.0" encoding="utf-8"?>
<!-- Generator: Adobe Illustrator 22.1.0, SVG Export Plug-In . SVG Version: 6.00 Build 0)  -->
<svg version="1.1" id="Var2" xmlns="http://www.w3.org/2000/svg" xmlns:xlink="http://www.w3.org/1999/xlink" x="0px" y="0px"
	 width="139.5px" height="113.4px" viewBox="0 0 139.5 113.4" style="enable-background:new 0 0 139.5 113.4;" xml:space="preserve"
	>
<style type="text/css">
	.st0{fill:#FFFFFF;}
</style>
<path id="twitter_3_" class="st0" d="M139.5,13.4c-5.1,2.3-10.6,3.8-16.4,4.5c5.9-3.5,10.4-9.2,12.6-15.8C130.1,5.4,124,7.8,117.5,9
	c-5.2-5.6-12.7-9-20.9-9C80.8,0,68,12.8,68,28.6c0,2.2,0.3,4.4,0.7,6.5C44.9,34,23.8,22.6,9.7,5.2c-2.5,4.2-3.9,9.1-3.9,14.4
	c0,9.9,5.1,18.7,12.7,23.8c-4.7-0.1-9.1-1.4-13-3.6c0,0.1,0,0.2,0,0.4c0,13.9,9.9,25.4,23,28.1c-2.4,0.7-4.9,1-7.5,1
	c-1.8,0-3.6-0.2-5.4-0.5c3.6,11.4,14.2,19.6,26.7,19.9c-9.8,7.7-22.1,12.3-35.5,12.3c-2.3,0-4.6-0.1-6.8-0.4
	c12.7,8.1,27.7,12.9,43.9,12.9c52.7,0,81.4-43.6,81.4-81.4c0-1.2,0-2.5-0.1-3.7C130.8,24.2,135.7,19.2,139.5,13.4z"/>
</svg>
