<?xml version="1.0" encoding="utf-8"?>
<!-- Generator: Adobe Illustrator 22.1.0, SVG Export Plug-In . SVG Version: 6.00 Build 0)  -->
<svg version="1.1" id="Var2" xmlns="http://www.w3.org/2000/svg" xmlns:xlink="http://www.w3.org/1999/xlink" x="0px" y="0px"
	 width="120.2px" height="133.1px" viewBox="0 0 120.2 133.1" style="enable-background:new 0 0 120.2 133.1;" xml:space="preserve"
	>
<style type="text/css">
	.st0{fill:#FFFFFF;}
</style>
<path id="viber_3_" class="st0" d="M107,12.4C102.1,8.2,96.3,5.6,90.1,4C74.6,0,58.9-1.1,43,1.1C35,2.2,27.2,4.3,20,8.3
	C11.6,13.1,5.8,19.9,3.3,29.3C1.4,36,0.5,42.9,0.2,49.8C-0.3,60,0,70.2,2.6,80.1c3,11.5,9.6,20,20.9,24.6c1.2,0.5,2.4,1.2,3.6,1.7
	c1.1,0.5,1.5,1.2,1.5,2.4c-0.1,8,0,16,0,24.3c3-2.9,5-5,6.5-6.6c4.4-5,8.6-9.2,13.3-14c2.3-2.4,1.4-2.3,5-2.2
	c4.3,0.1,11,0.2,15.3-0.1c8.1-0.6,16.2-1.7,24-4c10-3,17.9-8.3,22-18.4c1.1-2.7,2.1-5.4,2.8-8.2c3.9-16,3.4-32.1,0.1-48.1
	C116.1,24,112.9,17.4,107,12.4z M57.5,22.1c0.1-1.5,1-2.1,2.4-2.1c12.4,0.6,21.7,4.3,28.8,13.9c4.2,5.6,6.5,13.3,6.7,20.4
	c0,1.1,0,2.1,0,3.2c-0.1,1.2-0.6,2.1-1.9,2.1c-1.3,0-2-0.7-2.1-2.1c-0.3-5.2-1.4-10.3-3.4-15.2c-3.9-9.4-11.3-14.5-20.8-16.9
	c-2.5-0.6-5.1-1.2-7.7-1.4C58.5,23.9,57.4,23.6,57.5,22.1z M70,35.2c-2.5-0.9-5.1-1.6-7.7-2c-1.3-0.2-2.2-0.9-2-2.4
	c0.2-1.4,1.1-2,2.5-1.8c8.6,0.8,15.4,4,20,11.4c2.2,3.5,3.4,8.5,3.3,12.2c-0.1,2.6-0.5,3.3-2,3.3c-2.2-0.1-1.9-1.9-2-3.2
	c-0.3-2-0.7-4-1.3-6C79.1,41,75.6,37.2,70,35.2z M77.3,49.8c-0.1,0.7-0.1,1.2-0.2,1.7c-0.2,1-0.8,1.5-1.9,1.6
	c-1.1,0-1.6-0.6-1.9-1.5c-0.2-0.6-0.2-1.3-0.4-2c-0.7-3.5-2.7-5.8-6.1-6.7c-0.4-0.1-0.9-0.2-1.3-0.3c-1.1-0.3-2.4-0.3-2.5-1.9
	c0-1.3,1-2.1,2.8-2.2c1.2-0.1,3.1,0.5,4.2,1.1C74.6,41.7,76.7,44.8,77.3,49.8z M95.4,86.4c-2.4,5.4-6.5,9-12.2,10.6
	c-2.1,0.6-4.1,0.1-6-0.7C51,85.2,32.1,66.8,21.4,40.3c-0.8-1.9-1.2-3.9-1.2-5.7c0-6.8,6-13.2,12.6-13.5c1.8-0.1,3.4,0.5,4.7,1.7
	c4.6,4.3,8.3,9.3,11,15.1c1.5,3.1,0.9,5.3-1.8,7.5c-0.4,0.4-0.9,0.7-1.3,1c-3.5,2.6-4.3,5.2-2.6,9.3c2.8,6.7,7.3,11.9,13.3,15.7
	c2.3,1.5,4.6,2.8,7.3,3.6c2.4,0.7,4.4,0,5.9-2c0.2-0.2,0.3-0.4,0.5-0.7c3.4-4.7,7-5.5,11.9-2.4c4.2,2.6,8.1,5.6,11.9,8.8
	C96.1,80.8,96.8,83.4,95.4,86.4z"/>
</svg>
