<?xml version="1.0" encoding="utf-8"?>
<!-- Generator: Adobe Illustrator 22.1.0, SVG Export Plug-In . SVG Version: 6.00 Build 0)  -->
<svg version="1.1" id="Var2" xmlns="http://www.w3.org/2000/svg" xmlns:xlink="http://www.w3.org/1999/xlink" x="0px" y="0px"
	 width="114.5px" height="138.5px" viewBox="0 0 114.5 138.5" style="enable-background:new 0 0 114.5 138.5;" xml:space="preserve"
	>
<style type="text/css">
	.st0{fill:#FFFFFF;}
	.st1{fill-rule:evenodd;clip-rule:evenodd;fill:#FFFFFF;}
</style>
<g id="youtube_3_">
	<g>
		<path class="st0" d="M95.6,90.9c-2.3,0-3.5,1.8-3.5,5.3v3.5H99v-3.5C99,92.7,97.9,90.9,95.6,90.9z"/>
		<path class="st0" d="M112.5,71.5c-1.4-6.1-6.4-10.6-12.4-11.2c-14.2-1.6-28.6-1.6-42.9-1.6c-14.3,0-28.7,0-42.9,1.6
			c-6,0.7-11,5.2-12.4,11.2c-2,8.7-2,18.1-2,27.1c0,8.9,0,18.4,2,27.1c1.4,6.1,6.4,10.6,12.4,11.2c14.2,1.6,28.6,1.6,42.9,1.6
			c14.3,0,28.7,0,42.9-1.6c6-0.7,11-5.2,12.4-11.2c2-8.7,2-18.1,2-27.1C114.5,89.6,114.5,80.2,112.5,71.5z M32.7,79.3h-8.3v44h-7.7
			v-44H8.5v-7.2h24.1V79.3z M53.6,123.3h-6.9v-4.2c-2.8,3.2-5.4,4.7-7.9,4.7c-2.2,0-3.8-0.9-4.5-2.8c-0.4-1.2-0.6-3-0.6-5.7V85.2
			h6.9v28.1c0,1.6,0,2.5,0.1,2.7c0.2,1.1,0.7,1.6,1.6,1.6c1.4,0,2.8-1.1,4.4-3.2V85.2h6.9V123.3z M79.8,111.9c0,3.5-0.2,6.1-0.7,7.7
			c-0.9,2.8-2.8,4.3-5.5,4.3c-2.5,0-4.8-1.4-7.1-4.2v3.7h-6.9V72.1h6.9v16.7c2.2-2.7,4.6-4.1,7.1-4.1c2.8,0,4.6,1.4,5.5,4.3
			c0.5,1.5,0.7,4.1,0.7,7.7V111.9z M105.9,105.5H92.1v6.8c0,3.5,1.2,5.3,3.5,5.3c1.7,0,2.7-0.9,3.1-2.8c0.1-0.4,0.2-1.9,0.2-4.7h7.1
			v1c0,2.2-0.1,3.8-0.1,4.5c-0.2,1.5-0.8,2.9-1.6,4.1c-1.9,2.8-4.8,4.1-8.4,4.1c-3.6,0-6.4-1.3-8.4-3.9c-1.5-1.9-2.2-4.9-2.2-9V97.6
			c0-4.1,0.7-7.1,2.1-9c2-2.6,4.8-3.9,8.3-3.9c3.5,0,6.2,1.3,8.2,3.9c1.4,1.9,2.1,4.9,2.1,9V105.5z"/>
		<path class="st0" d="M69.9,90.9c-1.1,0-2.3,0.5-3.4,1.7v23.3c1.2,1.2,2.3,1.7,3.4,1.7c2,0,3-1.7,3-5.2V96.1
			C72.9,92.7,71.9,90.9,69.9,90.9z"/>
	</g>
	<path class="st1" d="M45.3,0h-7.8l-5.3,20.3L26.6,0h-8.2c1.6,4.8,3.3,9.6,5,14.4c2.5,7.2,4,12.7,4.7,16.4v21h7.8v-21L45.3,0z
		 M66,39.3V25.8c0-4.1-0.7-7.1-2.2-9.1c-1.9-2.6-4.7-4-8.2-4c-3.5,0-6.2,1.3-8.1,4c-1.5,2-2.2,5-2.2,9.1v13.5c0,4.1,0.7,7.1,2.2,9.1
		c1.9,2.6,4.7,3.9,8.1,3.9c3.5,0,6.2-1.3,8.2-3.9C65.3,46.4,66,43.4,66,39.3z M59,40.6c0,3.6-1.1,5.4-3.3,5.4
		c-2.3,0-3.3-1.8-3.3-5.4V24.4c0-3.6,1.1-5.3,3.3-5.3c2.3,0,3.3,1.8,3.3,5.3V40.6z M91.8,51.7V13.2h-7v29.5c-1.5,2.2-3,3.3-4.4,3.3
		c-0.9,0-1.5-0.6-1.6-1.6c-0.1-0.2-0.1-1.1-0.1-2.7V13.2h-7v30.5c0,2.7,0.2,4.6,0.6,5.7c0.7,2,2.2,2.9,4.5,2.9c2.5,0,5.2-1.6,8-4.7
		v4.2H91.8z"/>
</g>
</svg>
