<?xml version="1.0" encoding="utf-8"?>
<!-- Generator: Adobe Illustrator 22.1.0, SVG Export Plug-In . SVG Version: 6.00 Build 0)  -->
<svg version="1.1" id="Слой_1" xmlns="http://www.w3.org/2000/svg" xmlns:xlink="http://www.w3.org/1999/xlink" x="0px" y="0px"
	 viewBox="0 0 150 150" style="enable-background:new 0 0 150 150;" xml:space="preserve">
<style type="text/css">
	.st0{fill:#6BA84D;}
	.st1{fill-rule:evenodd;clip-rule:evenodd;fill:#FFFFFF;}
</style>
<path class="st0" d="M75,0L75,0C33.6,0,0,33.6,0,75v0c0,41.4,33.6,74.9,74.9,74.9H75c41.4,0,74.9-33.6,74.9-74.9v0
	C150,33.6,116.4,0,75,0z"/>
<path class="st1" d="M75.7,36.6C55,36.6,38.3,53.3,38.3,74c0,7.1,2,13.7,5.4,19.3l-6.7,20.1l20.7-6.6c5.4,3,11.5,4.7,18.1,4.7
	c20.7,0,37.4-16.7,37.4-37.4C113.1,53.3,96.3,36.6,75.7,36.6z M75.7,105.1c-6.3,0-12.2-1.9-17.1-5.1l-12,3.8l3.9-11.6
	c-3.7-5.1-5.9-11.4-5.9-18.2c0-17.2,14-31.1,31.1-31.1c17.2,0,31.1,14,31.1,31.1C106.8,91.1,92.8,105.1,75.7,105.1z M93.2,82.5
	c-0.9-0.5-5.5-3-6.4-3.3c-0.9-0.4-1.5-0.5-2.2,0.4c-0.7,0.9-2.6,3-3.2,3.6c-0.6,0.6-1.1,0.7-2.1,0.2c-0.9-0.5-4-1.6-7.5-5
	c-2.7-2.6-4.5-5.8-5.1-6.8c-0.5-1,0-1.5,0.5-1.9c0.4-0.4,1-1.1,1.5-1.6c0.5-0.5,0.7-0.9,1-1.6c0.3-0.6,0.2-1.2,0-1.7
	c-0.2-0.5-2-5.3-2.7-7.2c-0.7-1.9-1.5-1.7-2.1-1.7c-0.6,0-1.2-0.1-1.8-0.1c-0.6,0-1.7,0.2-2.6,1.1c-0.9,0.9-3.5,3.1-3.6,7.8
	c-0.2,4.7,3.1,9.4,3.5,10c0.5,0.7,6.2,10.8,15.8,15c9.6,4.2,9.6,2.9,11.4,2.8c1.8-0.1,5.7-2.1,6.6-4.3c0.9-2.2,0.9-4.1,0.7-4.5
	C94.8,83.2,94.1,83,93.2,82.5z"/>
</svg>
