<svg xmlns="http://www.w3.org/2000/svg" viewBox="0 0 149.83 149.79"><defs><style>.cls-1{fill:#715199;}.cls-2{fill:#fff;}</style></defs><title>Слой 1</title><g id="Слой_2" data-name="Слой 2"><g id="Слой_1-2" data-name="Слой 1"><path class="cls-1" d="M74.91,0h0A74.91,74.91,0,0,0,0,74.91H0a74.87,74.87,0,0,0,74.88,74.88H75a74.88,74.88,0,0,0,74.88-74.88h0A74.91,74.91,0,0,0,74.91,0Z"/><path id="viber" class="cls-2" d="M101.82,45.25a24.38,24.38,0,0,0-9.94-4.92,71,71,0,0,0-27.83-1.72,37.67,37.67,0,0,0-13.58,4.27,19.68,19.68,0,0,0-9.89,12.36,57,57,0,0,0-1.81,12.11,58.73,58.73,0,0,0,1.44,17.92C42,92.09,45.89,97.11,52.55,99.78c.73.29,1.41.69,2.13,1a1.32,1.32,0,0,1,.87,1.45c0,4.71,0,9.42,0,14.35,1.75-1.69,3-2.93,3.84-3.93,2.62-3,5.11-5.43,7.84-8.25,1.39-1.43.81-1.36,3-1.33,2.53,0,6.51.15,9,0a67.57,67.57,0,0,0,14.19-2.38c5.88-1.76,10.59-4.91,13-10.86A34.69,34.69,0,0,0,108,85c2.3-9.47,2-19,.07-28.42A19.28,19.28,0,0,0,101.82,45.25ZM72.59,51c0-.92.57-1.27,1.43-1.23,7.3.35,12.8,2.52,17,8.22a21.88,21.88,0,0,1,4,12c0,.62,0,1.24,0,1.86s-.34,1.22-1.12,1.23-1.17-.42-1.22-1.21a28.41,28.41,0,0,0-2-9c-2.28-5.55-6.66-8.55-12.28-10a26.73,26.73,0,0,0-4.53-.82C73.17,52.05,72.54,51.91,72.59,51ZM80,58.74a23.92,23.92,0,0,0-4.55-1.16c-.76-.11-1.3-.51-1.16-1.4a1.19,1.19,0,0,1,1.47-1.08c5.1.48,9.08,2.33,11.82,6.75A13.57,13.57,0,0,1,89.47,69c-.08,1.56-.32,2-1.21,1.94-1.29,0-1.1-1.1-1.2-1.89a25,25,0,0,0-.74-3.54A9.56,9.56,0,0,0,80,58.74Zm4.31,8.6a9.08,9.08,0,0,1-.12,1,1.07,1.07,0,0,1-1.1.92,1.1,1.1,0,0,1-1.13-.9,11.11,11.11,0,0,1-.22-1.15,4.7,4.7,0,0,0-3.61-3.95c-.25-.07-.51-.11-.76-.18-.65-.17-1.45-.19-1.48-1.13,0-.78.57-1.25,1.65-1.31a6,6,0,0,1,2.5.63A7,7,0,0,1,84.27,67.34ZM95,89a10.76,10.76,0,0,1-7.23,6.28,5.23,5.23,0,0,1-3.54-.43C68.78,88.25,57.61,77.4,51.29,61.73a8.2,8.2,0,0,1-.68-3.38,8.28,8.28,0,0,1,7.42-8,3.61,3.61,0,0,1,2.78,1,29.16,29.16,0,0,1,6.52,8.89c.87,1.83.51,3.12-1.06,4.43-.25.21-.52.4-.78.59-2.08,1.52-2.55,3.07-1.55,5.47a19.8,19.8,0,0,0,7.86,9.29,16.72,16.72,0,0,0,4.29,2.14,3.08,3.08,0,0,0,3.49-1.16l.29-.39c2-2.76,4.13-3.24,7-1.45a57.4,57.4,0,0,1,7,5.19A3.58,3.58,0,0,1,95,89Z"/></g></g></svg>