<svg xmlns="http://www.w3.org/2000/svg" viewBox="0 0 149.95 149.92"><defs><style>.cls-1{fill:#715199;}.cls-2{fill:#67abd3;}.cls-3{fill:#fff;}</style></defs><title>Слой 1 (2)</title><g id="Слой_2" data-name="Слой 2"><g id="Слой_1-2" data-name="Слой 1"><path class="cls-1" d="M74.91.13h0A74.91,74.91,0,0,0,0,75H0a74.88,74.88,0,0,0,74.88,74.88H75A74.89,74.89,0,0,0,149.83,75h0A74.91,74.91,0,0,0,74.91.13Z"/><path class="cls-2" d="M75,0h0A75,75,0,0,0,0,75H0a74.94,74.94,0,0,0,74.94,74.94H75A74.94,74.94,0,0,0,150,75h0A75,75,0,0,0,75,0Z"/><path id="telegram" class="cls-3" d="M106.32,44.27l-71.22,27c-3.89,1.13-3.77,5-.89,5.9L52.06,82.7l6.82,20.93c.83,2.29,1.51,3.15,2.93,3.17s2.06-.52,3.61-1.89c1.81-1.7,4.57-4.38,8.93-8.61L92.91,110c3.41,1.88,5.88.91,6.73-3.17l11.63-57.56C112.52,44.28,109.58,42.78,106.32,44.27ZM54.86,81.42,95.42,56c2-1.34,2.63.15,1.73,1.19L63.48,87.44l-1.73,15.12Z"/></g></g></svg>