<?xml version="1.0" encoding="utf-8"?>
<!-- Generator: Adobe Illustrator 20.1.0, SVG Export Plug-In . SVG Version: 6.00 Build 0)  -->
<svg version="1.1" id="icon" xmlns="http://www.w3.org/2000/svg" xmlns:xlink="http://www.w3.org/1999/xlink" x="0px" y="0px"
	 viewBox="0 0 512 512" style="enable-background:new 0 0 512 512;" xml:space="preserve">
<style type="text/css">
	.st0{fill:#231F20;}
</style>
<path class="st0" d="M325.9,335.5c-2,3.6-0.6,8.2,3,10.2c1.1,0.6,2.4,0.9,3.6,0.9c2.7,0,5.2-1.4,6.6-3.9c7.4-13.6,12-28.2,13.6-43.5
	c3.9,1.1,7.9,1.6,12,1.6c24.7,0,44.7-20.1,44.7-44.7s-20.1-44.7-44.7-44.7c-2.3,0-4.6,0.2-6.9,0.5l0.6-10.3h22.1
	c11.8,0,21.3-9.6,21.3-21.3c0-10.8-8-19.7-18.4-21.1v-11.9c0-36.3-13.3-70.7-36.7-97.3l7.9-7.9h66.6c4.1,0,7.5-3.4,7.5-7.5
	c0-4.1-3.4-7.5-7.5-7.5h-69.8c-2,0-3.9,0.8-5.3,2.2l-9.9,9.9c-5.6-5.2-11.6-10-18.1-14.3c-3.4-2.3-8.1-1.4-10.4,2
	c-2.3,3.4-1.4,8.1,2,10.4c5.6,3.8,10.9,8,15.8,12.5l-9,9c-8.1-6-18-9.5-28.8-9.5h-31.3c-9.3,0-16.8,7.6-16.8,16.8v92.7h-7V66.2
	c0-9.3-7.6-16.8-16.8-16.8h-31.3c-19.8,0-36.8,11.9-44.3,29l-10.1-10.1C154.1,36,192.6,15,236,15c14.7,0,29.2,2.4,43,7.1
	c3.9,1.3,8.2-0.7,9.5-4.7c1.3-3.9-0.7-8.2-4.7-9.5c-15.4-5.3-31.5-8-47.9-8c-47.5,0-89.8,22.6-116.8,57.6l-0.6-0.6
	c-1.4-1.4-3.3-2.2-5.3-2.2H43.6c-4.1,0-7.5,3.4-7.5,7.5c0,4.1,3.4,7.5,7.5,7.5h66.6l0.3,0.3C96.7,92.6,88.7,119,88.7,147.3v11.9
	c-10.4,1.4-18.4,10.3-18.4,21.1c0,11.8,9.6,21.3,21.3,21.3h22.1l0.6,10.3c-2.3-0.4-4.6-0.5-6.9-0.5c-24.7,0-44.7,20.1-44.7,44.7
	c0,24.7,20.1,44.7,44.7,44.7c4.1,0,8.1-0.6,12-1.7c5,46,36.3,83.7,78.3,98.2v16.9h-88.7c-22.9,0-41.4,18.6-41.4,41.4v48.7
	c0,4.1,3.4,7.5,7.5,7.5c4.1,0,7.5-3.4,7.5-7.5v-48.7c0-14.6,11.9-26.4,26.4-26.4h41.6v75.2c0,4.1,3.4,7.5,7.5,7.5
	c4.1,0,7.5-3.4,7.5-7.5v-75.2h33.5c4.5,16.2,19.4,28.1,37,28.1s32.5-11.9,37-28.1h90.1c14.6,0,26.4,11.9,26.4,26.4v48.7
	c0,4.1,3.4,7.5,7.5,7.5s7.5-3.4,7.5-7.5v-48.7c0-22.9-18.6-41.4-41.4-41.4h-88.7v-16.9c15.4-5.3,29.7-13.9,41.9-25.3
	c3-2.8,3.2-7.6,0.3-10.6c-2.8-3-7.6-3.2-10.6-0.3c-19,17.9-43.9,27.7-70,27.7c-54.2,0-99.1-42.4-102.2-96.6l-5.1-90.6h14.4
	c4.1,0,7.5-3.4,7.5-7.5c0-4.1-3.4-7.5-7.5-7.5H91.6c-3.5,0-6.3-2.8-6.3-6.3c0-3.5,2.8-6.3,6.3-6.3h288.8c3.5,0,6.3,2.8,6.3,6.3
	c0,3.5-2.8,6.3-6.3,6.3H177.7c-4.1,0-7.5,3.4-7.5,7.5c0,4.1,3.4,7.5,7.5,7.5h165.7l-5.1,90.6C337.3,307.6,333.2,322.1,325.9,335.5z
	 M259.4,401.5v17.6c0,12.9-10.5,23.4-23.4,23.4c-12.9,0-23.4-10.5-23.4-23.4v-17.6c7.6,1.5,15.4,2.3,23.4,2.3
	C243.9,403.8,251.8,403,259.4,401.5z M77.6,256.1c0-16.4,13.3-29.7,29.7-29.7c2.7,0,5.3,0.3,7.8,1l3.2,56.3c-3.5,1.4-7.2,2.1-11,2.1
	C91,285.8,77.6,272.5,77.6,256.1z M368.3,147.3v11.6h-49.7c11.1-11.9,17.5-27.7,17.5-44.5V97.8c0-10.5-3.4-20.2-9.1-28.2l9-9
	C356.6,84.4,368.3,115,368.3,147.3z M254.5,66.2c0-1,0.8-1.8,1.8-1.8h1.3c0.2,0.2,0.3,0.4,0.5,0.5c2.7,2.7,4.2,6.4,4.2,10.2
	c0,4.1,3.4,7.5,7.5,7.5c4.1,0,7.5-3.4,7.5-7.5c0-3.8-0.7-7.4-2-10.8h12.3c6.6,0,12.8,2,18,5.3l-6,6c-2.9,2.9-2.9,7.7,0,10.6
	c1.5,1.5,3.4,2.2,5.3,2.2s3.8-0.7,5.3-2.2l5.9-5.9c3.1,5.1,4.9,11,4.9,17.4v6.4c-3.2-1.1-6.6-1.7-10-1.7c-4.1,0-7.5,3.4-7.5,7.5
	c0,4.1,3.4,7.5,7.5,7.5c3.6,0,6.9,1.3,9.6,3.7c-2.1,15.9-11.8,30-26.2,37.7c-0.1,0-0.1,0.1-0.2,0.1h-39.7V66.2z M184.3,64.4h12.3
	c-1.3,3.4-2,7-2,10.8c0,4.1,3.4,7.5,7.5,7.5c4.1,0,7.5-3.4,7.5-7.5c0-3.9,1.5-7.5,4.2-10.2c0.2-0.2,0.3-0.4,0.5-0.5h1.3
	c1,0,1.8,0.8,1.8,1.8v92.7h-39.8c-0.1-0.1-0.3-0.2-0.5-0.3c-16.2-8.8-26.3-25.8-26.3-44.2v-3.9l3.5,3.5c1.5,1.5,3.4,2.2,5.3,2.2
	s3.8-0.7,5.3-2.2c2.9-2.9,2.9-7.7,0-10.6l-13.2-13.2C155.3,75.4,168.5,64.4,184.3,64.4z M121.5,81.1L136,95.6c0,0.7-0.1,1.5-0.1,2.2
	v16.6c0,16.8,6.4,32.6,17.5,44.5h-49.7v-11.6C103.7,123.2,110.2,100.6,121.5,81.1z M364.7,226.4c16.4,0,29.7,13.3,29.7,29.7
	s-13.3,29.7-29.7,29.7c-3.8,0-7.5-0.7-11-2.1l3.2-56.3C359.4,226.7,362,226.4,364.7,226.4z"/>
<path class="st0" d="M181.5,239.9c-4.1,0-7.5,3.4-7.5,7.5c0,4.1,3.4,7.5,7.5,7.5h0.2c4.1,0,7.5-3.4,7.5-7.5c0-4.1-3.4-7.5-7.5-7.5
	H181.5z"/>
<path class="st0" d="M290.3,239.9c-4.1,0-7.5,3.4-7.5,7.5c0,4.1,3.4,7.5,7.5,7.5h0.2c4.1,0,7.5-3.4,7.5-7.5c0-4.1-3.4-7.5-7.5-7.5
	H290.3z"/>
<path class="st0" d="M236,361.5c22.7,0,41.8-16.3,45.3-38.7c0.7-4.1-2.1-7.9-6.2-8.6c-4.1-0.6-7.9,2.1-8.6,6.2
	c-2.4,15.1-15.2,26-30.5,26s-28.1-11-30.5-26c-0.7-4.1-4.5-6.9-8.6-6.2c-4.1,0.7-6.9,4.5-6.2,8.6C194.3,345.3,213.3,361.5,236,361.5
	z"/>
<path class="st0" d="M229.3,313.4h13.5c5.3,0,10.3-2.3,13.8-6.3c3.5-4,5-9.3,4.3-14.5l-6.7-46.5c-1.3-8.9-9-15.6-18-15.6
	s-16.7,6.7-18,15.6l-6.7,46.5c-0.8,5.2,0.8,10.5,4.3,14.5C219,311.1,224,313.4,229.3,313.4z M226.1,294.7l6.7-46.5
	c0.2-1.6,1.6-2.8,3.2-2.8s3,1.2,3.2,2.8l6.7,46.5c0.2,1.3-0.4,2.2-0.8,2.6c-0.4,0.4-1.2,1.1-2.4,1.1h-13.5c-1.3,0-2.1-0.7-2.4-1.1
	C226.5,296.9,225.9,296,226.1,294.7z"/>
<path class="st0" d="M316.1,235.9c2.4,0,4.8-1.2,6.3-3.4c2.3-3.5,1.3-8.1-2.2-10.4c-19.3-12.7-41.5-6.6-42.4-6.4
	c-4,1.1-6.3,5.2-5.2,9.2c1.1,4,5.2,6.3,9.2,5.2c0.2,0,16.7-4.4,30.2,4.5C313.2,235.5,314.6,235.9,316.1,235.9z"/>
<path class="st0" d="M199.5,225c1.1-4-1.2-8.1-5.2-9.2c-0.9-0.3-23.1-6.3-42.4,6.4c-3.5,2.3-4.4,6.9-2.2,10.4
	c1.4,2.2,3.8,3.4,6.3,3.4c1.4,0,2.8-0.4,4.1-1.2c13.4-8.8,29.9-4.6,30.2-4.5C194.3,231.3,198.4,228.9,199.5,225z"/>
<path class="st0" d="M275.1,117.5c4.1,0,7.5-3.4,7.5-7.5c0-5.6,3.3-10.8,8.4-13.1c3.8-1.7,5.4-6.2,3.6-10c-1.8-3.8-6.2-5.4-10-3.6
	c-10.4,4.8-17.1,15.3-17.1,26.7C267.6,114.1,271,117.5,275.1,117.5z"/>
<path class="st0" d="M302.3,123.5c0-4.1-3.4-7.5-7.5-7.5c-4.1,0-7.5,3.4-7.5,7.5c0,8-6.5,14.5-14.5,14.5c-4.1,0-7.5,3.4-7.5,7.5
	c0,4.1,3.4,7.5,7.5,7.5C289.1,153,302.3,139.8,302.3,123.5z"/>
<path class="st0" d="M175,95.5c8,0,14.5,6.5,14.5,14.5c0,4.1,3.4,7.5,7.5,7.5c4.1,0,7.5-3.4,7.5-7.5c0-16.3-13.2-29.5-29.5-29.5
	c-4.1,0-7.5,3.4-7.5,7.5S170.8,95.5,175,95.5z"/>
<path class="st0" d="M184.7,123.5c0-4.1-3.4-7.5-7.5-7.5s-7.5,3.4-7.5,7.5c0,16.3,13.2,29.5,29.5,29.5c4.1,0,7.5-3.4,7.5-7.5
	c0-4.1-3.4-7.5-7.5-7.5C191.2,138,184.7,131.5,184.7,123.5z"/>
<path class="st0" d="M457.3,80.9h-57.9c-4.1,0-7.5,3.4-7.5,7.5c0,4.1,3.4,7.5,7.5,7.5h57.9c4.1,0,7.5-3.4,7.5-7.5
	C464.8,84.3,461.4,80.9,457.3,80.9z"/>
<path class="st0" d="M444.2,102.4h-44.7c-4.1,0-7.5,3.4-7.5,7.5c0,4.1,3.4,7.5,7.5,7.5h44.7c4.1,0,7.5-3.4,7.5-7.5
	C451.7,105.7,448.3,102.4,444.2,102.4z"/>
<path class="st0" d="M399.5,54.2C399.4,54.2,399.4,54.2,399.5,54.2c-4.2,0-7.5,3.4-7.5,7.5v0.1c0,4.1,3.4,7.5,7.5,7.5h0
	c4.1,0,7.5-3.4,7.5-7.5v-0.1C406.9,57.5,403.6,54.2,399.5,54.2z"/>
<path class="st0" d="M421.3,54.1c-4.1,0-7.5,3.4-7.5,7.5v0.1c0,4.1,3.4,7.5,7.5,7.5s7.5-3.4,7.5-7.5v-0.1
	C428.8,57.5,425.5,54.1,421.3,54.1z"/>
<path class="st0" d="M72.9,116.2c0-4.1-3.4-7.5-7.5-7.5H7.5c-4.1,0-7.5,3.4-7.5,7.5c0,4.1,3.4,7.5,7.5,7.5h57.9
	C69.5,123.7,72.9,120.3,72.9,116.2z"/>
<path class="st0" d="M72.9,137.6c0-4.1-3.4-7.5-7.5-7.5H20.6c-4.1,0-7.5,3.4-7.5,7.5c0,4.1,3.4,7.5,7.5,7.5h44.7
	C69.5,145.1,72.9,141.8,72.9,137.6z"/>
<path class="st0" d="M65.4,97c4.1,0,7.5-3.3,7.5-7.5v-0.1c0-4.1-3.3-7.5-7.5-7.5c0,0,0,0,0,0c-4.1,0-7.5,3.3-7.5,7.5v0.1
	C57.8,93.6,61.2,97,65.4,97L65.4,97z"/>
<path class="st0" d="M43.5,97c4.1,0,7.5-3.4,7.5-7.5v-0.1c0-4.1-3.4-7.5-7.5-7.5S36,85.2,36,89.4v0.1C36,93.6,39.3,97,43.5,97z"/>
<path class="st0" d="M191.2,456.2L191.2,456.2c-4.2,0-7.5,3.4-7.5,7.5c0,4.1,3.4,7.5,7.5,7.5c4.1,0,7.5-3.4,7.5-7.5
	C198.7,459.5,195.4,456.2,191.2,456.2z"/>
<path class="st0" d="M191.2,480.5L191.2,480.5c-4.2,0-7.5,3.4-7.5,7.5c0,4.1,3.4,7.5,7.5,7.5c4.1,0,7.5-3.4,7.5-7.5
	C198.7,483.9,195.4,480.5,191.2,480.5z"/>
</svg>
