<?xml version="1.0" encoding="utf-8"?>
<!-- Generator: Adobe Illustrator 22.0.1, SVG Export Plug-In . SVG Version: 6.00 Build 0)  -->
<svg version="1.1" id="icon" xmlns="http://www.w3.org/2000/svg" xmlns:xlink="http://www.w3.org/1999/xlink" x="0px" y="0px"
	 viewBox="0 0 512 512" style="enable-background:new 0 0 512 512;" xml:space="preserve">
<style type="text/css">
	.st0{fill:#FFFFFF;}
</style>
<path class="st0" d="M135.9,462c-3.5-20.1-21-35.4-42-35.4c-16.8,0-31.4,9.8-38.3,23.9c-1.4-1-2.8-1.9-4.4-2.6V307.2
	c0-4.7-3.8-8.5-8.5-8.5s-8.5,3.8-8.5,8.5v136.5C15.3,443.7,0,459,0,477.9S15.3,512,34.1,512H128c14.1,0,25.6-11.5,25.6-25.6
	C153.6,475,146.2,465.4,135.9,462z M128,494.9H34.1c-9.4,0-17.1-7.7-17.1-17.1s7.7-17.1,17.1-17.1c8,0,15,4.6,17.6,11.5
	c1.4,3.9,5.4,6.1,9.5,5.4s7-4.3,7-8.4c0-14.1,11.5-25.6,25.6-25.6s25.6,11.5,25.6,25.6c0,4.7,3.8,8.5,8.5,8.5s8.5,3.8,8.5,8.5
	S132.7,494.9,128,494.9z"/>
<path class="st0" d="M503.5,68.3H341.3c-4.7,0-8.5,3.8-8.5,8.5s3.8,8.5,8.5,8.5h153.6v184.2L262,36.6c-1.7-1.7-3.9-2.5-6.1-2.5
	s-4.4,0.8-6.1,2.5L17.1,269.5V85.3H111c4.7,0,8.5-3.8,8.5-8.5V42.7c0-4.7-3.8-8.5-8.5-8.5h-8.5V17.1h51.2v17.1h-8.5
	c-4.7,0-8.5,3.8-8.5,8.5v34.1c0,4.7,3.8,8.5,8.5,8.5h25.6c4.7,0,8.5-3.8,8.5-8.5s-3.8-8.5-8.5-8.5h-17.1V51.2h8.5
	c4.7,0,8.5-3.8,8.5-8.5V8.5c0-4.7-3.8-8.5-8.5-8.5H93.9c-4.7,0-8.5,3.8-8.5,8.5v34.1c0,4.7,3.8,8.5,8.5,8.5h8.5v17.1H8.5
	c-2.3,0-4.4,0.9-6,2.5S0,74.5,0,76.7V290c0,3.5,2.1,6.6,5.3,7.9c1.1,0.4,2.2,0.6,3.3,0.6c2.2,0,4.4-0.9,6-2.5L256,54.7l241.5,241.5
	c1.6,1.6,3.8,2.5,6,2.5c1.1,0,2.2-0.2,3.3-0.6c3.2-1.3,5.3-4.4,5.3-7.9V76.8C512,72.1,508.2,68.3,503.5,68.3z"/>
<path class="st0" d="M477.9,443.7V307.2c0-4.7-3.8-8.5-8.5-8.5s-8.5,3.8-8.5,8.5v140.7c-1.5,0.8-3,1.7-4.4,2.6
	c-7-14.1-21.5-23.9-38.3-23.9c-21,0-38.6,15.3-42,35.4c-10.3,3.3-17.7,13-17.7,24.4c0,3,0.6,5.9,1.6,8.5H213.3
	c-4.7,0-8.5,3.8-8.5,8.5s3.8,8.5,8.5,8.5H384h34.1h59.7c18.8,0,34.1-15.3,34.1-34.1S496.7,443.7,477.9,443.7z M477.9,494.9h-59.7
	H384c-4.7,0-8.5-3.8-8.5-8.5s3.8-8.5,8.5-8.5s8.5-3.8,8.5-8.5c0-14.1,11.5-25.6,25.6-25.6s25.6,11.5,25.6,25.6c0,4.1,3,7.7,7,8.4
	c4.1,0.7,8.1-1.5,9.5-5.4c2.6-6.9,9.6-11.5,17.6-11.5c9.4,0,17.1,7.7,17.1,17.1S487.3,494.9,477.9,494.9z"/>
<path class="st0" d="M290.1,170.7c0-18.8-15.3-34.1-34.1-34.1s-34.1,15.3-34.1,34.1s15.3,34.1,34.1,34.1S290.1,189.5,290.1,170.7z
	 M238.9,170.7c0-9.4,7.7-17.1,17.1-17.1c9.4,0,17.1,7.7,17.1,17.1c0,9.4-7.7,17.1-17.1,17.1C246.6,187.7,238.9,180.1,238.9,170.7z"
	/>
<path class="st0" d="M418.1,290.1h-68.3c-4.7,0-8.5,3.8-8.5,8.5v93.9h-8.5c-4.7,0-8.5,3.8-8.5,8.5s3.8,8.5,8.5,8.5h102.4
	c4.7,0,8.5-3.8,8.5-8.5s-3.8-8.5-8.5-8.5h-8.5v-93.9C426.7,294,422.8,290.1,418.1,290.1z M409.6,392.5h-51.2v-34.1h51.2V392.5z
	 M409.6,341.3h-51.2v-34.1h51.2V341.3z"/>
<path class="st0" d="M341.3,469.3c0-4.7-3.8-8.5-8.5-8.5h-25.6V298.7c0-4.7-3.8-8.5-8.5-8.5h-85.3c-4.7,0-8.5,3.8-8.5,8.5v162.1
	h-25.6c-4.7,0-8.5,3.8-8.5,8.5v34.1c0,4.7,3.8,8.5,8.5,8.5s8.5-3.8,8.5-8.5v-25.6h145.1C337.5,477.9,341.3,474,341.3,469.3z
	 M290.1,375.5h-8.5c-4.7,0-8.5,3.8-8.5,8.5s3.8,8.5,8.5,8.5h8.5v68.3h-68.3V307.2h68.3V375.5z"/>
<path class="st0" d="M162.1,290.1H93.9c-4.7,0-8.5,3.8-8.5,8.5v93.9h-8.5c-4.7,0-8.5,3.8-8.5,8.5s3.8,8.5,8.5,8.5h102.4
	c4.7,0,8.5-3.8,8.5-8.5s-3.8-8.5-8.5-8.5h-8.5v-93.9C170.7,294,166.8,290.1,162.1,290.1z M153.6,392.5h-51.2v-34.1h51.2V392.5z
	 M153.6,341.3h-51.2v-34.1h51.2V341.3z"/>
</svg>
