<?xml version="1.0" encoding="utf-8"?>
<!-- Generator: Adobe Illustrator 22.0.1, SVG Export Plug-In . SVG Version: 6.00 Build 0)  -->
<svg version="1.1" id="icon" xmlns="http://www.w3.org/2000/svg" xmlns:xlink="http://www.w3.org/1999/xlink" x="0px" y="0px"
	 viewBox="0 0 512 464" style="enable-background:new 0 0 512 464;" xml:space="preserve">
<style type="text/css">
	.st0{fill:#FFFFFF;}
</style>
<g>
	<g>
		<path class="st0" d="M267.9,89.3l-7.5-1.4c2.4-5.9,3.7-12.4,3.7-19.1V52c0-28.7-23.3-52-52-52s-52,23.3-52,52v16.8
			c0,6.8,1.3,13.2,3.7,19.1l-7.5,1.4C134,93.5,118,112.8,118,135.2v27c0,5.5,4.5,10,10,10h168c5.5,0,10-4.5,10-10v-27
			C306,112.8,290,93.5,267.9,89.3z M180,52c0-17.6,14.4-32,32-32s32,14.4,32,32v16.8c0,17.6-14.4,32-32,32s-32-14.4-32-32V52z
			 M286,152.2H138v-17c0-12.8,9.2-23.9,21.8-26.2l16-3c9.4,9.1,22.2,14.8,36.2,14.8s26.9-5.6,36.2-14.8l16,3
			c12.6,2.4,21.8,13.4,21.8,26.2V152.2z"/>
	</g>
</g>
<g>
	<g>
		<path class="st0" d="M511.1,464c0.6-3.2,0.9-6.6,0.9-10c0-5.5-4.5-10-10-10H297v-38c0-5.5-4.5-10-10-10s-10,4.5-10,10v38h-38
			c-5.5,0-10,4.5-10,10s4.5,10,10,10h251.7"/>
		<path class="st0" d="M21.3,464H162c5.5,0,10-4.5,10-10s-4.5-10-10-10H96v-56.4c0-5.5-4.5-10-10-10s-10,4.5-10,10V444H10
			c-5.5,0-10,4.5-10,10c0,3.4,0.3,6.8,0.9,10"/>
	</g>
</g>
<g>
	<g>
		<path class="st0" d="M205.7,446.9c-1.9-1.9-4.4-2.9-7.1-2.9s-5.2,1.1-7.1,2.9c-1.9,1.9-2.9,4.4-2.9,7.1s1.1,5.2,2.9,7.1
			c1.9,1.9,4.4,2.9,7.1,2.9s5.2-1.1,7.1-2.9c1.9-1.9,2.9-4.4,2.9-7.1S207.5,448.8,205.7,446.9z"/>
	</g>
</g>
<g>
	<g>
		<path class="st0" d="M479.4,125.5h-98.7c-18,0-32.6,14.6-32.6,32.6v75.3c0,18,14.6,32.6,32.6,32.6h98.7c18,0,32.6-14.6,32.6-32.6
			v-75.3C512,140.1,497.4,125.5,479.4,125.5z M380.6,246c-7,0-12.6-5.7-12.6-12.6v-8.1l29.7-29.7l50.4,50.4H380.6z M492,233.4
			c0,7-5.7,12.6-12.6,12.6h-3.7c-0.5-1-1.1-1.9-1.9-2.7l-31-31l25.9-25.9l23.3,23.3L492,233.4L492,233.4z M492,181.5l-16.3-16.3
			c-3.9-3.9-10.2-3.9-14.1,0l-33,33l-23.9-23.9c-3.9-3.9-10.2-3.9-14.1,0L368,196.9V158c0-7,5.7-12.6,12.6-12.6h98.7
			c7,0,12.6,5.7,12.6,12.6L492,181.5L492,181.5z"/>
	</g>
</g>
<g>
	<g>
		<path class="st0" d="M152.1,222H19.9C8.9,222,0,230.9,0,241.9V333c0,11,8.9,20,19.9,20h13.2L50,369.9c2,2,4.5,2.9,7.1,2.9
			s5.1-1,7.1-2.9L81.1,353H152c11,0,19.9-8.9,19.9-19.9V242C172,230.9,163.1,222,152.1,222z M152,333H77c-2.7,0-5.2,1.1-7.1,2.9
			l-12.8,12.8l-12.8-12.8c-1.9-1.9-4.4-2.9-7.1-2.9H20v-91h132V333z"/>
	</g>
</g>
<g>
	<g>
		<path class="st0" d="M313.9,255.5c-11.9-5.8-23.7-9-24.2-9.2c-3-0.8-6.2-0.2-8.7,1.7s-3.9,4.8-3.9,8v21.7v15.8v23
			c-10.9-3.4-23.8-0.5-32.9,8.6c-12.7,12.7-13.4,32.6-1.6,44.5c5.6,5.6,13.1,8.4,20.8,8.4c8.4,0,17.1-3.4,23.7-10
			c6.9-6.9,10.2-15.8,10-24.5v-36c2.7,1.1,5.6,2.3,8.4,3.7c13.7,6.6,16.7,11.9,16.7,13.4c0,5.5,4.5,10,10,10s10-4.5,10-10V287
			C342.1,275.1,332.6,264.5,313.9,255.5z M272.9,353.8c-4.9,4.9-12.2,5.6-16.2,1.6s-3.3-11.3,1.6-16.2c2.8-2.8,6.3-4.2,9.6-4.2
			c2.5,0,4.9,0.9,6.6,2.6c1.5,1.5,2.3,3.4,2.5,5.5v0.8c0,0.3,0,0.5,0,0.8C276.9,347.9,275.5,351.2,272.9,353.8z M322.1,297.4
			c-2.5-1.5-5.2-3-8.2-4.4c-6.2-3-12.3-5.3-16.9-6.9v-8.5V270c2.6,1,5.4,2.2,8.2,3.6c13.9,6.7,16.9,12,16.9,13.5V297.4z"/>
	</g>
</g>
<g>
	<g>
		<path class="st0" d="M428.6,290.3c-5.5,0-10,4.5-10,10V364c0,5.5,4.5,10,10,10s10-4.5,10-10v-63.7
			C438.6,294.8,434.2,290.3,428.6,290.3z"/>
	</g>
</g>
<g>
	<g>
		<path class="st0" d="M212,190.8c-5.5,0-10,4.5-10,10v22c0,5.5,4.5,10,10,10s10-4.5,10-10v-22C222,195.3,217.5,190.8,212,190.8z"/>
	</g>
</g>
<g>
	<g>
		<path class="st0" d="M219.1,249.3c-1.9-1.9-4.4-2.9-7.1-2.9s-5.2,1.1-7.1,2.9c-1.9,1.9-2.9,4.4-2.9,7.1c0,2.6,1.1,5.2,2.9,7.1
			c1.9,1.9,4.4,2.9,7.1,2.9c2.6,0,5.2-1.1,7.1-2.9c1.9-1.9,2.9-4.4,2.9-7.1C222,253.7,220.9,251.1,219.1,249.3z"/>
	</g>
</g>
</svg>
