<?xml version="1.0" encoding="utf-8"?>
<!-- Generator: Adobe Illustrator 22.0.1, SVG Export Plug-In . SVG Version: 6.00 Build 0)  -->
<svg version="1.1" id="icon" xmlns="http://www.w3.org/2000/svg" xmlns:xlink="http://www.w3.org/1999/xlink" x="0px" y="0px"
	 viewBox="0 0 496 496" style="enable-background:new 0 0 496 496;" xml:space="preserve">
<style type="text/css">
	.st0{fill:#FFFFFF;}
</style>
<path class="st0" d="M440,448c-12.5,0-24.2,4.8-33,13.7l-9.4,9.4c-11.6,11.6-31.7,11.6-43.3,0l-9.4-9.4c-8.8-8.8-20.5-13.7-33-13.7
	s-24.2,4.8-33,13.7l-9.4,9.4c-11.6,11.6-31.7,11.6-43.3,0l-9.4-9.4c-8.8-8.8-20.5-13.7-33-13.7s-24.2,4.8-33,13.7l-9.4,9.4
	c-11.6,11.6-31.7,11.6-43.3,0l-9.4-9.4c-8.8-8.8-20.5-13.7-33-13.7s-24.2,4.8-33,13.7L2.3,482.3l11.3,11.3L34.3,473
	c11.6-11.6,31.7-11.6,43.3,0l9.4,9.4c8.8,8.8,20.5,13.7,33,13.7s24.2-4.8,33-13.7l9.4-9.4c11.6-11.6,31.7-11.6,43.3,0l9.4,9.4
	c8.8,8.8,20.5,13.7,33,13.7c12.5,0,24.2-4.8,33-13.7l9.4-9.4c11.6-11.6,31.7-11.6,43.3,0l9.4,9.4c8.8,8.8,20.5,13.7,33,13.7
	s24.2-4.8,33-13.7l9.4-9.4c11.6-11.6,31.7-11.6,43.3,0l20.7,20.7l11.3-11.3L473,461.7C464.2,452.8,452.5,448,440,448z"/>
<path class="st0" d="M496,352v-16h-80v-96c0-8.8,7.2-16,16-16s16,7.2,16,16v16h16v-16c0-17.6-14.4-32-32-32s-32,14.4-32,32v32h-96
	v-32c0-8.8,7.2-16,16-16s16,7.2,16,16v16h16v-16c0-17.6-14.4-32-32-32s-32,14.4-32,32v96h-64v-32h24c4.4,0,8-3.6,8-8v-32
	c0-4.4-3.6-8-8-8h-96c-4.4,0-8,3.6-8,8v32c0,4.4,3.6,8,8,8h24v32H80v-32h24c4.4,0,8-3.6,8-8v-32c0-4.4-3.6-8-8-8H8c-4.4,0-8,3.6-8,8
	v32c0,4.4,3.6,8,8,8h24v32H0v16h288v16H0v16h288v22.7c-3.2,1.9-6.2,4.2-9,7l-9.4,9.4c-11.6,11.6-31.7,11.6-43.3,0l-9.4-9.4
	c-8.8-8.8-20.5-13.7-33-13.7s-24.2,4.8-33,13.7l-9.4,9.4c-11.6,11.6-31.7,11.6-43.3,0l-9.4-9.4c-8.8-8.8-20.5-13.7-33-13.7
	s-24.2,4.8-33,13.7L2.3,434.3l11.3,11.3L34.3,425c11.6-11.6,31.7-11.6,43.3,0l9.4,9.4c8.8,8.8,20.5,13.7,33,13.7s24.2-4.8,33-13.7
	l9.4-9.4c11.6-11.6,31.7-11.6,43.3,0l9.4,9.4c8.8,8.8,20.5,13.7,33,13.7c12.5,0,24.2-4.8,33-13.7l9.4-9.4
	c11.6-11.6,31.7-11.6,43.3,0l9.4,9.4c8.8,8.8,20.5,13.7,33,13.7s24.2-4.8,33-13.7l9.4-9.4c11.6-11.6,31.7-11.6,43.3,0l20.7,20.7
	l11.3-11.3L473,413.7c-8.8-8.8-20.5-13.7-33-13.7c-8.6,0-16.8,2.4-24,6.7V384h80v-16h-80v-16H496z M160,272h80v16h-80V272z M16,272
	h80v16H16V272z M48,336v-32h16v32H48z M192,336v-32h16v32H192z M400,304h-96v-16h96V304z M304,320h96v16h-96V320z M400,420.7
	l-2.3,2.3c-11.6,11.6-31.7,11.6-43.3,0l-9.4-9.4c-8.8-8.8-20.5-13.7-33-13.7c-2.7,0-5.4,0.3-8,0.7V384h96L400,420.7L400,420.7z
	 M400,368h-96v-16h96V368z"/>
<path class="st0" d="M96,144c4.9,0,9.7-0.8,14.4-2.3C117.7,153,130.1,160,144,160s26.3-7,33.6-18.3c4.7,1.6,9.6,2.3,14.4,2.3
	c21.2,0,39.3-13.9,45.6-33c3.4,0.6,6.9,1,10.4,1s7-0.4,10.4-1c6.3,19.2,24.3,33,45.6,33c4.9,0,9.7-0.8,14.4-2.3
	C325.7,153,338.1,160,352,160s26.3-7,33.6-18.3c4.7,1.6,9.6,2.3,14.4,2.3c26.5,0,48-21.5,48-48c0-27.4-23.2-49.4-50.8-47.9
	C390.6,29.1,372.6,16,352,16s-38.6,13.1-45.2,32.1c-1.2-0.1-2.3,0-3.4,0C299.5,20.9,276.2,0,248,0s-51.5,21-55.4,48.1
	c-1.1,0-2.3-0.1-3.4,0C182.6,29.1,164.6,16,144,16s-38.6,13.1-45.2,32.1C71.2,46.5,48,68.6,48,96C48,122.5,69.5,144,96,144z
	 M311,64.8c2.1,0.5,4.4,0.1,6.2-1.2c1.8-1.2,3.1-3.1,3.4-5.3C323.3,43.1,336.5,32,352,32s28.7,11.1,31.4,26.4
	c0.4,2.2,1.6,4.1,3.4,5.3s4,1.6,6.2,1.2c2.5-0.6,4.8-0.8,7-0.8c17.6,0,32,14.4,32,32s-14.4,32-32,32c-4.9,0-9.8-1.2-14.5-3.7
	c-2-1-4.4-1.2-6.5-0.4c-2.1,0.8-3.8,2.5-4.6,4.6C370.7,137.9,362,144,352,144s-18.7-6.1-22.3-15.4c-0.8-2.1-2.5-3.8-4.6-4.6
	c-0.9-0.4-1.9-0.5-2.8-0.5c-1.3,0-2.5,0.3-3.7,0.9c-4.8,2.4-9.6,3.7-14.5,3.7c-17.6,0-32-14.4-32-32s14.4-32,32-32
	C306.2,64,308.5,64.3,311,64.8z M248,16c20.3,0,37,15.3,39.5,35c-18.1,6.6-31.1,23.9-31.4,44.1c-5.3,1.1-10.8,1.1-16.1,0
	c-0.4-20.3-13.4-37.5-31.4-44.1C211,31.3,227.7,16,248,16z M96,64c2.2,0,4.5,0.3,7,0.8c2.1,0.5,4.4,0.1,6.2-1.2
	c1.8-1.2,3.1-3.1,3.4-5.3C115.3,43.1,128.5,32,144,32s28.7,11.1,31.4,26.4c0.4,2.2,1.6,4.1,3.4,5.3c1.8,1.2,4.1,1.6,6.2,1.2
	c2.5-0.6,4.8-0.8,7-0.8c17.6,0,32,14.4,32,32s-14.4,32-32,32c-4.9,0-9.8-1.2-14.5-3.7c-2-1-4.4-1.2-6.5-0.4
	c-2.1,0.8-3.8,2.5-4.6,4.6C162.7,137.9,154,144,144,144s-18.7-6.1-22.3-15.4c-0.8-2.1-2.5-3.8-4.6-4.6c-0.9-0.4-1.9-0.5-2.8-0.5
	c-1.3,0-2.5,0.3-3.7,0.9c-4.8,2.4-9.6,3.7-14.5,3.7c-17.6,0-32-14.4-32-32S78.4,64,96,64z"/>
</svg>
