<?xml version="1.0" encoding="utf-8"?>
<!-- Generator: Adobe Illustrator 22.0.1, SVG Export Plug-In . SVG Version: 6.00 Build 0)  -->
<svg version="1.1" id="icon" xmlns="http://www.w3.org/2000/svg" xmlns:xlink="http://www.w3.org/1999/xlink" x="0px" y="0px"
	 viewBox="0 0 496 496" style="enable-background:new 0 0 496 496;" xml:space="preserve">
<style type="text/css">
	.st0{fill:#FFFFFF;}
</style>
<path class="st0" d="M493.7,242.3l-240-240c-3.1-3.1-8.2-3.1-11.3,0l-240,240c-2.3,2.3-3,5.7-1.7,8.7c1.2,3,4.2,4.9,7.4,4.9h24v232
	c0,4.4,3.6,8,8,8h416c4.4,0,8-3.6,8-8V256h24c3.2,0,6.2-2,7.4-4.9C496.6,248.1,495.9,244.6,493.7,242.3z M448,480H48V256h80v89.6
	c0,31.5,17,60.8,44.3,76.4l71.7,41c1.2,0.7,2.6,1,4,1s2.7-0.4,4-1.1l71.7-41c27.4-15.6,44.3-44.9,44.3-76.4V256h80V480z M248,128
	c-8.8,0-16-7.2-16-16s7.2-16,16-16c8.8,0,16,7.2,16,16S256.8,128,248,128z M248,180.2c25.7,27.9,61.8,43.8,100,43.8h4v121.6
	c0,25.8-13.9,49.7-36.3,62.5L248,446.8l-67.7-38.7c-22.4-12.8-36.3-36.7-36.3-62.5V224h4.1C186.2,224,222.3,208.1,248,180.2z
	 M456,240h-88v-24c0-4.4-3.6-8-8-8h-12c-35.6,0-69.1-15.6-92-42.9v-22.2c13.8-3.6,24-16,24-30.9c0-17.6-14.4-32-32-32
	s-32,14.4-32,32c0,14.9,10.2,27.3,24,30.9v22.2c-22.9,27.3-56.4,42.9-92,42.9h-12c-4.4,0-8,3.6-8,8v24H27.3L248,19.3L468.7,240H456z
	"/>
<path class="st0" d="M184,392h128c4.4,0,8-3.6,8-8v-80c0-4.4-3.6-8-8-8h-8v-24c0-30.9-25.1-56-56-56s-56,25.1-56,56v24h-8
	c-4.4,0-8,3.6-8,8v80C176,388.4,179.6,392,184,392z M208,272c0-22.1,17.9-40,40-40s40,17.9,40,40v24h-16v-24c0-13.2-10.8-24-24-24
	c-13.2,0-24,10.8-24,24v24h-16V272z M256,296h-16v-24c0-4.4,3.6-8,8-8s8,3.6,8,8V296z M304,312v32h-16v16h16v16H192v-32h16v-16h-16
	v-16H304z"/>
<path class="st0" d="M272,352c0-13.2-10.8-24-24-24c-13.2,0-24,10.8-24,24s10.8,24,24,24C261.2,376,272,365.2,272,352z M248,360
	c-4.4,0-8-3.6-8-8s3.6-8,8-8s8,3.6,8,8S252.4,360,248,360z"/>
</svg>
