<?xml version="1.0" encoding="utf-8"?>
<!-- Generator: Adobe Illustrator 22.0.1, SVG Export Plug-In . SVG Version: 6.00 Build 0)  -->
<svg version="1.1" id="icon" xmlns="http://www.w3.org/2000/svg" xmlns:xlink="http://www.w3.org/1999/xlink" x="0px" y="0px"
	 viewBox="0 0 496 496" style="enable-background:new 0 0 496 496;" xml:space="preserve">
<style type="text/css">
	.st0{fill:#FFFFFF;}
</style>
<path class="st0" d="M443.6,241.9l28.5-68.4c14.4-6.4,23.9-20.6,23.9-36.4c0-22.1-17.9-40-40-40s-40,17.9-40,40
	c0,5.7,1.3,11.4,3.8,16.7l-27.7,60l-6.9-6.9c-3.8-3.8-8.8-5.8-14.1-5.8h-3.7c-1.5,0-2.9-0.9-3.5-2.2l-1.4-2.8
	c-3.4-6.8-10.2-11-17.8-11h-1.2c-7.6,0-14.4,4.2-17.8,11l-1.4,2.8c-1.4,2.8-6.3,2.5-7.3-0.5l-2.6-7.7c-2.7-8.2-10.4-13.6-18.9-13.6
	c-7.6,0-14.4,4.2-17.8,11l-1.4,2.8c-0.7,1.3-2,2.2-3.5,2.2H268c-1.4,0-2.7,0.1-4,0.4V129h-79.4l22-112H264V1h-70.6l-25.1,128H120
	l44.2-44.2l-6.7-5.6C140.2,64.9,118.4,57,96,57c-52.9,0-96,43.1-96,96c0,22.4,7.9,44.2,22.2,61.4l5.6,6.7L56,193v24.5l15,225.1
	c0.8,12.6,11.4,22.4,24,22.4h297c57.3,0,104-46.7,104-104v-56h-16.4C477.2,279.1,463.6,256.4,443.6,241.9z M463.5,305h-16.2
	c-3.9-27.1-27.2-48-55.4-48s-51.5,20.9-55.4,48h-16.2c4-35.9,34.5-64,71.5-64S459.5,269.1,463.5,305z M431.2,305h-78.4
	c3.7-18.2,19.9-32,39.2-32S427.5,286.8,431.2,305z M248,273c19.3,0,35.5,13.8,39.2,32h-78.4C212.5,286.8,228.7,273,248,273z
	 M437.8,153l-2.2-3.6c-2.4-3.9-3.6-8-3.6-12.3c0-13.2,10.8-24,24-24s24,10.8,24,24c0,10.3-6.6,19.4-16.5,22.6l-3.5,1.2l-30.3,72.8
	c-7.9-3.8-16.5-6.4-25.5-7.7l-0.1-0.1L437.8,153z M268,209h4.7c7.6,0,14.4-4.2,17.8-11l1.4-2.8c1.4-2.8,6.3-2.5,7.3,0.5l2.6,7.7
	c2.7,8.2,10.3,13.6,18.9,13.6c7.6,0,14.4-4.2,17.8-11l1.4-2.8c0.7-1.3,2-2.2,3.5-2.2h1.2c1.5,0,2.9,0.9,3.5,2.2l1.4,2.8
	c3.4,6.8,10.2,11,17.8,11h3.7c1.1,0,2.1,0.4,2.8,1.2l7.5,7.5c-40.9,4.9-73.2,38-77,79.3h-1c-3.9-27.1-27.2-48-55.4-48
	c-2.7,0-5.4,0.3-8,0.6v-10.3c0-1.3,0.7-2.6,1.8-3.3l13.4-8.9c5.6-3.7,8.9-9.9,8.9-16.6V213C264,210.8,265.8,209,268,209z M248,145
	v16h-24v16h24v41.6c0,1.3-0.7,2.6-1.8,3.3l-13.4,8.9c-0.9,0.6-1.7,1.4-2.5,2.1c-19.1-0.3-36.6-6.5-53.6-12.5
	c-3.2-1.1-6.4-2.2-9.5-3.3l7.9-40.2H208v-16h-29.6l3.1-16L248,145L248,145z M165.2,145l-3.1,16H88l16-16H165.2z M48,153
	c0-26.5,21.5-48,48-48c7.2,0,14.2,1.7,20.6,4.8l-63.8,63.8C49.7,167.2,48,160.2,48,153z M16,153c0-44.1,35.9-80,80-80
	c15.7,0,31.1,4.7,44.1,13.3L128.3,98c-9.8-5.8-20.8-9-32.3-9c-35.3,0-64,28.7-64,64c0,11.5,3.2,22.5,9,32.3l-11.8,11.8
	C20.7,184.1,16,168.7,16,153z M158.9,177l-6.9,35.4c-7.9-2.1-15.9-3.4-24-3.4c-21.7,0-43,6.8-55.8,11.7L72,217v-40H158.9z M95,449
	c-4.2,0-7.7-3.3-8-7.5l-13.6-204C83.6,233.2,106,225,128,225c6.8,0,13.7,1.3,20.9,3.2l-36.7,187.3l15.7,3.1L164.2,233
	c2.4,0.8,4.8,1.7,7.3,2.5c15.7,5.6,33.2,11.7,52.5,13.2v13.8c-16.6,7.9-28.6,23.7-31.4,42.5H176v56c0,37,19.4,69.6,48.6,88H95
	L95,449z M392,449H280c-48.5,0-88-39.5-88-88v-8h248v-16H192v-16h288v16h-24v16h24v8C480,409.5,440.5,449,392,449z"/>
<path class="st0" d="M240,281h16v16h-16V281z"/>
<path class="st0" d="M448,129h16v16h-16V129z"/>
</svg>
